<svg width="629" height="425" viewBox="0 0 629 425" fill="none" xmlns="http://www.w3.org/2000/svg">
<path d="M194.859 351.83L163.56 339.098C163.56 339.098 155.778 345.319 151.359 349.177C142.707 356.732 128.548 362.97 129.609 367.744C130.67 372.519 136.471 384.279 143.402 393.208C154.112 407.006 163.267 425.184 179.475 418.671C196.385 411.876 180.787 389.866 186.371 372.519C189.047 364.206 194.859 351.83 194.859 351.83Z" fill="#F7F4EF" stroke="#F7F4EF"/>
<path d="M399.096 406.47C408.13 416.968 420.316 422.385 432.517 418.671C444.718 414.958 440.474 380.476 442.596 370.397C444.718 360.318 446.84 351.83 446.84 351.83C446.84 351.83 427.834 359.832 416.602 366.683C405.602 373.394 390.078 386.312 390.078 386.312C390.078 386.312 393.471 399.933 399.096 406.47Z" fill="#F7F4EF" stroke="#F7F4EF"/>
<path d="M32.5301 306.208C40.7798 357.769 73.3776 429.281 95.6581 423.446C117.939 417.61 102.554 379.415 118.469 360.318C134.384 341.22 160.908 331.671 173.64 299.842C186.371 268.013 177.353 248.385 183.719 246.793C190.085 245.202 192.366 271.157 190.615 289.232C188.865 307.308 171.518 328.488 171.518 328.488C171.518 328.488 204.745 342.275 225.628 347.055C247.194 351.993 279.207 355.543 279.207 355.543C279.207 355.543 299.926 309.213 296.482 256.164C293.037 203.116 213.908 158.555 197.811 137.335C181.713 116.116 179.774 85.3475 179.774 85.3475C179.774 85.3475 149.768 95.0739 117.408 114.171C85.0483 133.269 66.4813 155.55 62.2374 158.202C57.9935 160.854 33.5911 171.464 20.8594 189.501C10.8054 203.744 9.18867 224.513 9.18867 224.513C9.18867 224.513 5.17812 229.634 3.35331 232.47C-2.47574 241.53 4.20211 258.995 5.47525 260.586C6.7484 262.177 16.6155 254.22 20.8594 245.202C25.1033 236.184 19.2679 226.104 19.2679 226.104C19.2679 226.104 21.28 207.164 27.7557 197.458C33.294 189.157 46.8533 180.482 46.8533 180.482C46.8533 180.482 36.6551 202.847 33.5911 218.678C27.2252 251.568 28.2862 279.684 32.5301 306.208Z" fill="#F7F4EF" stroke="#F7F4EF"/>
<path d="M343.396 423.976C319.524 422.385 302.975 407.83 298.835 387.903C290.347 347.055 326.258 291.707 309.744 241.841C282.689 160.146 193.037 153.25 195.159 82.6951C195.814 60.8968 212.365 50.6073 230.402 37.7813C254.274 20.8057 321.19 -1.20143 358.78 1.17765C400.688 3.83008 421.778 8.47508 455.859 42.5557C475.487 62.1837 477.491 82.4519 499.889 90.83C519.649 98.221 542.638 90.8412 561.956 99.3178C602.664 117.179 627.737 163.941 627.737 200.641C627.737 227.696 608.639 251.037 598.029 273.318C585.478 299.676 595.067 313.497 575.749 335.385C560.91 352.197 542.841 362.471 520.578 359.787C501.161 357.446 501.386 341.807 482.914 335.385C460.103 327.454 438.554 341.203 410.767 355.013C364.085 378.215 361.921 425.211 343.396 423.976Z" fill="#D49A7F" stroke="#D49A7F"/>
<path d="M459.042 166.69C462.755 194.806 479.731 205.052 488.749 208.068C497.767 211.083 508.377 209.659 515.274 202.763C524.292 193.745 519.933 177.335 508.377 173.056C494.054 167.751 488.992 163.56 487.158 149.714C485.323 135.869 498.828 115.281 494.584 112.58C490.341 109.879 455.328 138.574 459.042 166.69Z" fill="#8A553E" stroke="#8A553E"/>
<path d="M515.804 251.037C515.804 257.489 523.248 263.331 529.596 262.178C534.978 261.2 539.145 256.507 539.145 251.037C539.145 245.568 534.978 240.344 529.596 239.367C523.248 238.213 515.804 244.585 515.804 251.037Z" fill="#8A553E" stroke="#8A553E"/>
<path d="M354.999 302.309C339.608 298.336 322.074 302.655 320.009 315.868C317.943 329.081 350.982 340.373 350.982 340.373C350.982 340.373 382.516 348.232 386.413 334.311C390.675 319.081 370.827 306.396 354.999 302.309Z" fill="#F7F4EF"/>
<path d="M342.099 232.63C334.396 235.235 325.43 239.507 328.533 248.292C331.836 257.64 343.614 255.733 351.812 252.961C359.515 250.357 368.482 246.085 365.378 237.3C362.076 227.951 350.297 229.858 342.099 232.63Z" fill="#F7F4EF"/>
<path d="M386.411 218.197C378.852 220.555 365.896 226.993 367.558 235.725C369.294 244.844 376.987 247.894 385.225 246.403C391.937 245.188 399.681 247.904 404.957 243.868C413.351 237.447 422.673 240.51 431.391 234.537C440.5 228.298 450.193 219.286 443.754 208.025C437.902 197.792 424.376 199.464 414.423 201.867C404.402 204.286 402.836 215.775 392.626 217.615C388.059 218.438 390.786 216.833 386.411 218.197Z" fill="#F7F4EF"/>
<path d="M315.977 184.175C309.315 188.988 302.336 195.841 307.21 204.183C312.073 212.508 321.565 209.915 329.561 207.569C337.815 205.148 337.388 195.915 345.145 192.404C352.033 189.287 357.768 192.532 364.877 189.869C372.822 186.892 374.873 181.216 382.315 177.271C392.474 171.885 402.057 175.914 410.767 168.436C420.043 160.473 431.301 151.627 424.382 139.065C416.873 125.434 400.283 131.461 388.512 137.632C378.326 142.972 378.98 154.285 374.62 157.435C369.287 161.288 364.641 157.398 356.905 160.466C347.829 164.066 338.979 179.277 335.872 179.569C331.704 179.959 322.639 179.362 315.977 184.175Z" fill="#F7F4EF"/>
<path d="M279.94 145.262C274.364 150.865 268.721 159.69 275.207 166.262C281.009 172.14 287.297 167.241 293.849 164.514C304.052 160.269 300.564 152.857 305.236 150.427C310.564 147.657 315.926 147.862 321.097 144.829C328.479 140.499 327.381 140.569 334.175 135.38C343.999 127.879 354.804 131.819 362.952 122.404C370.921 113.196 381.582 103.016 372.532 92.0413C363.902 81.5756 351.896 89.937 341.462 94.9544C330.164 100.387 328.66 113.97 324.3 117.12C320.044 120.195 316.069 117.206 308.44 122.718C298.391 129.978 304.484 133.824 295.801 139.663C291.356 142.652 283.731 141.452 279.94 145.262Z" fill="#F7F4EF"/>
<path d="M239.674 123.037C237.854 128.735 235.969 136.693 242.408 140.597C248.267 144.149 252.502 139.528 257.179 135.786C262.51 131.52 261.826 125.746 265.621 119.92C274.455 106.357 288.996 97.1717 294.608 91.1637C300.22 85.1558 306.808 66.7226 294.103 58.3205C281.398 49.9184 272.886 67.7499 264.675 79.5805C257.583 89.8001 252.151 108.163 250.898 111.022C249.646 113.88 242.03 115.662 239.674 123.037Z" fill="#F7F4EF"/>
<path d="M354.999 302.309C339.608 298.336 322.074 302.655 320.009 315.868C317.943 329.081 350.982 340.373 350.982 340.373C350.982 340.373 382.516 348.232 386.413 334.311C390.675 319.081 370.827 306.396 354.999 302.309Z" stroke="#F7F4EF"/>
<path d="M342.099 232.63C334.396 235.235 325.43 239.507 328.533 248.292C331.836 257.64 343.614 255.733 351.812 252.961C359.515 250.357 368.482 246.085 365.378 237.3C362.076 227.951 350.297 229.858 342.099 232.63Z" stroke="#F7F4EF"/>
<path d="M386.411 218.197C378.852 220.555 365.896 226.993 367.558 235.725C369.294 244.844 376.987 247.894 385.225 246.403C391.937 245.188 399.681 247.904 404.957 243.868C413.351 237.447 422.673 240.51 431.391 234.537C440.5 228.298 450.193 219.286 443.754 208.025C437.902 197.792 424.376 199.464 414.423 201.867C404.402 204.286 402.836 215.775 392.626 217.615C388.059 218.438 390.786 216.833 386.411 218.197Z" stroke="#F7F4EF"/>
<path d="M315.977 184.175C309.315 188.988 302.336 195.841 307.21 204.183C312.073 212.508 321.565 209.915 329.561 207.569C337.815 205.148 337.388 195.915 345.145 192.404C352.033 189.287 357.768 192.532 364.877 189.869C372.822 186.892 374.873 181.216 382.315 177.271C392.474 171.885 402.057 175.914 410.767 168.436C420.043 160.473 431.301 151.627 424.382 139.065C416.873 125.434 400.283 131.461 388.512 137.632C378.326 142.972 378.98 154.285 374.62 157.435C369.287 161.288 364.641 157.398 356.905 160.466C347.829 164.066 338.979 179.277 335.872 179.569C331.704 179.959 322.639 179.362 315.977 184.175Z" stroke="#F7F4EF"/>
<path d="M279.94 145.262C274.364 150.865 268.721 159.69 275.207 166.262C281.009 172.14 287.297 167.241 293.849 164.514C304.052 160.269 300.564 152.857 305.236 150.427C310.564 147.657 315.926 147.862 321.097 144.829C328.479 140.499 327.381 140.569 334.175 135.38C343.999 127.879 354.804 131.819 362.952 122.404C370.921 113.196 381.582 103.016 372.532 92.0413C363.902 81.5756 351.896 89.937 341.462 94.9544C330.164 100.387 328.66 113.97 324.3 117.12C320.044 120.195 316.069 117.206 308.44 122.718C298.391 129.978 304.484 133.824 295.801 139.663C291.356 142.652 283.731 141.452 279.94 145.262Z" stroke="#F7F4EF"/>
<path d="M239.674 123.037C237.854 128.735 235.969 136.693 242.408 140.597C248.267 144.149 252.502 139.528 257.179 135.786C262.51 131.52 261.826 125.746 265.621 119.92C274.455 106.357 288.996 97.1717 294.608 91.1637C300.22 85.1558 306.808 66.7226 294.103 58.3205C281.398 49.9184 272.886 67.7499 264.675 79.5805C257.583 89.8001 252.151 108.163 250.898 111.022C249.646 113.88 242.03 115.662 239.674 123.037Z" stroke="#F7F4EF"/>
</svg>
