<svg width="629" height="567" viewBox="0 0 629 567" fill="none" xmlns="http://www.w3.org/2000/svg">
<path d="M511.75 511.047C517.431 511.047 522.001 511.723 525.393 513.137H525.394C528.819 514.534 531.289 516.794 532.719 519.92L532.978 520.504C534.23 523.477 534.828 527.253 534.828 531.781C534.828 534.784 534.813 537.336 534.781 539.437C534.781 541.531 534.766 543.858 534.734 546.418C534.736 548.708 535.107 551.119 535.86 553.654L536.149 554.594C536.42 555.492 536.634 556.267 536.792 556.916C536.996 557.756 537.125 558.463 537.125 558.969C537.125 560.643 536.313 562.102 534.908 563.331L534.907 563.332C533.513 564.547 531.891 565.172 530.078 565.172C528.431 565.172 526.899 564.401 525.498 563.068L525.233 562.804C524.135 561.682 523.006 560.211 521.845 558.41C519.003 560.531 516.221 562.17 513.496 563.312L513.491 563.314C510.478 564.559 507.111 565.172 503.406 565.172C499.993 565.172 496.941 564.504 494.278 563.14L494.271 563.137L494.265 563.133C491.65 561.743 489.605 559.856 488.16 557.471C486.722 555.096 486 552.511 486 549.734C486 546.002 487.191 542.776 489.584 540.113C491.82 537.626 494.814 535.937 498.508 535.011L499.256 534.835C500.091 534.643 502.117 534.219 505.315 533.567C508.524 532.913 511.262 532.322 513.529 531.794L515.287 531.354C516.85 530.954 518.493 530.503 520.218 530.009C520.001 527.141 519.36 525.171 518.415 523.959L518.401 523.941C517.519 522.757 515.481 521.953 511.75 521.953C508.563 521.953 506.309 522.403 504.871 523.189C503.411 524.005 502.121 525.241 501.009 526.938C499.862 528.736 499.003 529.988 498.455 530.64L498.456 530.641C498.043 531.136 497.452 531.427 496.825 531.598C496.193 531.77 495.44 531.844 494.594 531.844C492.926 531.844 491.444 531.311 490.194 530.245L490.183 530.235L490.171 530.225C488.924 529.091 488.297 527.631 488.297 525.922C488.297 523.418 489.188 521.026 490.888 518.76C492.623 516.446 495.281 514.603 498.764 513.184C502.295 511.745 506.635 511.047 511.75 511.047ZM520.266 539.829C518.454 540.402 516.121 541 513.275 541.618L513.269 541.619C509.705 542.369 507.262 542.927 505.919 543.293L505.909 543.296L505.898 543.298C504.695 543.599 503.517 544.221 502.366 545.199L502.36 545.204L502.355 545.209C501.373 546.019 500.844 547.168 500.844 548.797C500.844 550.444 501.454 551.838 502.727 553.031C503.976 554.172 505.639 554.781 507.812 554.781C510.192 554.781 512.36 554.269 514.334 553.254L514.706 553.053C516.531 552.033 517.832 550.787 518.663 549.332L518.668 549.324L518.673 549.315C519.683 547.622 520.266 544.666 520.266 540.266V539.829Z" fill="#F7F4EF" stroke="#F7F4EF" stroke-width="2"/>
<path d="M468.531 511.141C471.393 511.141 474.162 511.858 476.828 513.273C479.575 514.731 481.156 516.8 481.156 519.5C481.156 521.326 480.504 522.89 479.201 524.118V524.119C477.986 525.262 476.594 525.891 475.047 525.891C474.677 525.891 474.167 525.79 473.601 525.65C473.003 525.503 472.243 525.286 471.328 525.002L471.318 524.999L471.309 524.995C469.595 524.424 468.127 524.156 466.891 524.156C465.201 524.156 463.913 524.603 462.941 525.421L462.935 525.426L462.929 525.431C461.928 526.247 461.094 527.519 460.479 529.337C459.854 531.181 459.413 533.413 459.168 536.046L459.167 536.047C458.921 538.662 458.797 541.878 458.797 545.703V556.391C458.797 559.125 458.155 561.365 456.701 562.931L456.693 562.939C455.273 564.432 453.458 565.172 451.328 565.172C449.215 565.172 447.426 564.406 446.04 562.874C444.625 561.31 444 559.091 444 556.391V520.766C444 517.8 444.53 515.395 445.748 513.711C447.009 511.966 448.898 511.141 451.234 511.141C453.579 511.141 455.47 511.895 456.648 513.584C457.323 514.551 457.783 515.759 458.061 517.178C459.146 515.633 460.263 514.365 461.418 513.392L461.425 513.386L461.778 513.108C463.576 511.77 465.855 511.141 468.531 511.141Z" fill="#F7F4EF" stroke="#F7F4EF" stroke-width="2"/>
<path d="M422.328 511.141C424.458 511.141 426.273 511.88 427.693 513.373C429.136 514.889 429.797 516.946 429.797 519.406V556.391C429.797 559.097 429.153 561.32 427.701 562.884C426.283 564.41 424.466 565.172 422.328 565.172C420.181 565.172 418.372 564.388 416.985 562.818L416.977 562.809C415.611 561.221 415 559.033 415 556.391V519.781C415 517.116 415.607 514.927 416.992 513.393L417.001 513.383L417.267 513.11C418.619 511.792 420.331 511.141 422.328 511.141ZM422.469 492.672C424.359 492.672 426.054 493.286 427.514 494.496C429.074 495.79 429.797 497.65 429.797 499.906C429.797 502.105 429.088 503.943 427.591 505.29L427.58 505.3C426.141 506.559 424.42 507.188 422.469 507.188C420.464 507.188 418.699 506.565 417.226 505.308L417.217 505.3C415.706 503.978 415 502.13 415 499.906C415 497.827 415.749 496.067 417.252 494.711C418.742 493.363 420.494 492.672 422.469 492.672Z" fill="#F7F4EF" stroke="#F7F4EF" stroke-width="2"/>
<path d="M333.047 511.141C335.05 511.141 336.767 511.832 338.123 513.225H338.122C339.257 514.339 339.9 515.776 340.109 517.466C341.916 515.641 343.836 514.217 345.87 513.213C348.552 511.889 351.518 511.234 354.75 511.234C358.102 511.234 361.041 511.902 363.531 513.281C365.65 514.455 367.433 516.135 368.891 518.289C370.722 516.255 372.677 514.658 374.763 513.521L375.251 513.264C377.871 511.906 380.762 511.234 383.906 511.234C387.537 511.234 390.725 511.948 393.431 513.418C395.973 514.799 397.924 516.75 399.264 519.256L399.523 519.765L399.529 519.775L399.745 520.264C400.787 522.779 401.266 526.435 401.266 531.125V556.109C401.266 558.928 400.628 561.229 399.178 562.828C397.749 564.403 395.859 565.172 393.609 565.172C391.412 565.172 389.546 564.396 388.096 562.837L388.08 562.819C386.64 561.195 386 558.903 386 556.109V534.594C386 531.866 385.875 529.719 385.636 528.134L385.635 528.124L385.634 528.115C385.439 526.642 384.892 525.448 384.013 524.488C383.233 523.638 381.984 523.125 380.062 523.125C378.588 523.125 377.169 523.556 375.788 524.456L375.789 524.457C374.448 525.351 373.395 526.551 372.626 528.078C371.785 530.031 371.312 533.649 371.312 539.094V556.109C371.312 558.928 370.675 561.229 369.225 562.828C367.796 564.403 365.906 565.172 363.656 565.172C361.458 565.172 359.604 564.396 358.182 562.828L358.173 562.818C356.76 561.219 356.141 558.923 356.141 556.109V535.719C356.141 532.514 356.032 530.062 355.82 528.341C355.621 526.714 355.088 525.458 354.273 524.512L354.265 524.502C353.552 523.651 352.356 523.125 350.438 523.125C346.491 523.125 344.172 524.455 343.047 526.861C341.824 529.545 341.172 533.499 341.172 538.812V556.109C341.172 558.902 340.531 561.193 339.092 562.817L339.093 562.818C337.696 564.399 335.833 565.172 333.609 565.172C331.412 565.172 329.546 564.396 328.096 562.837L328.08 562.819C326.64 561.195 326 558.903 326 556.109V519.5C326 516.959 326.576 514.857 327.888 513.357L327.897 513.347L328.151 513.078C329.447 511.78 331.105 511.141 333.047 511.141Z" fill="#F7F4EF" stroke="#F7F4EF" stroke-width="2"/>
<path d="M287.75 511.047C293.431 511.047 298.001 511.723 301.393 513.137H301.394C304.819 514.534 307.289 516.794 308.719 519.92L308.978 520.504C310.23 523.477 310.828 527.253 310.828 531.781C310.828 534.784 310.813 537.336 310.781 539.437C310.781 541.531 310.766 543.858 310.734 546.418C310.736 548.708 311.107 551.119 311.86 553.654L312.149 554.594C312.42 555.492 312.634 556.267 312.792 556.916C312.996 557.756 313.125 558.463 313.125 558.969C313.125 560.643 312.313 562.102 310.908 563.331L310.907 563.332C309.513 564.547 307.891 565.172 306.078 565.172C304.431 565.172 302.899 564.401 301.498 563.068L301.233 562.804C300.135 561.682 299.006 560.211 297.845 558.41C295.003 560.531 292.221 562.17 289.496 563.312L289.491 563.314C286.478 564.559 283.111 565.172 279.406 565.172C275.993 565.172 272.941 564.504 270.278 563.14L270.271 563.137L270.265 563.133C267.65 561.743 265.605 559.856 264.16 557.471C262.722 555.096 262 552.511 262 549.734C262 546.002 263.191 542.776 265.584 540.113C267.82 537.626 270.814 535.937 274.508 535.011L275.256 534.835C276.091 534.643 278.117 534.219 281.315 533.567C284.524 532.913 287.262 532.322 289.529 531.794L291.287 531.354C292.85 530.954 294.493 530.503 296.218 530.009C296.001 527.141 295.36 525.171 294.415 523.959L294.401 523.941C293.519 522.757 291.481 521.953 287.75 521.953C284.563 521.953 282.309 522.403 280.871 523.189C279.411 524.005 278.121 525.241 277.009 526.938C275.862 528.736 275.003 529.988 274.455 530.64L274.456 530.641C274.043 531.136 273.452 531.427 272.825 531.598C272.193 531.77 271.44 531.844 270.594 531.844C268.926 531.844 267.444 531.311 266.194 530.245L266.183 530.235L266.171 530.225C264.924 529.091 264.297 527.631 264.297 525.922C264.297 523.418 265.188 521.026 266.888 518.76C268.623 516.446 271.281 514.603 274.764 513.184C278.295 511.745 282.635 511.047 287.75 511.047ZM296.266 539.829C294.454 540.402 292.121 541 289.275 541.618L289.269 541.619C285.705 542.369 283.262 542.927 281.919 543.293L281.909 543.296L281.898 543.298C280.695 543.599 279.517 544.221 278.366 545.199L278.36 545.204L278.355 545.209C277.373 546.019 276.844 547.168 276.844 548.797C276.844 550.444 277.454 551.838 278.727 553.031C279.976 554.172 281.639 554.781 283.812 554.781C286.192 554.781 288.36 554.269 290.334 553.254L290.706 553.053C292.531 552.033 293.832 550.787 294.663 549.332L294.668 549.324L294.673 549.315C295.683 547.622 296.266 544.666 296.266 540.266V539.829Z" fill="#F7F4EF" stroke="#F7F4EF" stroke-width="2"/>
<path d="M230.734 493.75C232.638 493.75 234.344 494.474 235.821 495.846C236.848 496.8 237.498 497.984 237.759 499.367L237.854 499.862C238.06 501.07 238.156 502.64 238.156 504.547V512.266H241.844C243.805 512.266 245.464 512.739 246.651 513.847H246.65C247.831 514.887 248.422 516.253 248.422 517.859C248.422 518.851 248.223 519.762 247.774 520.547C247.323 521.336 246.654 521.937 245.813 522.358L245.814 522.359C244.265 523.152 242.142 523.5 239.547 523.5H238.156V546.031C238.156 548.004 238.217 549.499 238.334 550.535C238.466 551.426 238.77 552.104 239.206 552.619C239.567 552.988 240.241 553.281 241.469 553.281C242.124 553.281 243.067 553.17 244.324 552.925C245.618 552.642 246.693 552.484 247.516 552.484C248.844 552.484 250.007 553.036 250.975 554.029L251.165 554.222C252.087 555.199 252.547 556.411 252.547 557.797C252.547 559.022 252.209 560.138 251.518 561.107C250.834 562.067 249.842 562.831 248.609 563.431C246.16 564.621 242.748 565.172 238.469 565.172C234.385 565.172 231.126 564.491 228.829 562.994C226.562 561.517 225.054 559.454 224.333 556.845L224.211 556.356C223.636 553.928 223.359 550.821 223.359 547.062V523.5H222.672C220.682 523.5 218.999 523.028 217.783 521.93C216.598 520.859 216 519.477 216 517.859C216 516.231 216.622 514.855 217.853 513.815L218.098 513.62C219.349 512.676 221.009 512.266 222.953 512.266H223.359V505.578C223.359 503.506 223.406 501.865 223.503 500.669L223.504 500.657L223.506 500.646C223.643 499.345 223.99 498.185 224.577 497.193C225.168 496.165 226.012 495.347 227.079 494.737V494.736C227.083 494.734 227.087 494.732 227.091 494.729C227.094 494.728 227.097 494.726 227.101 494.724V494.725C228.197 494.072 229.416 493.75 230.734 493.75Z" fill="#F7F4EF" stroke="#F7F4EF" stroke-width="2"/>
<path d="M196.531 511.141C199.393 511.141 202.162 511.858 204.828 513.273C207.575 514.731 209.156 516.8 209.156 519.5C209.156 521.326 208.504 522.89 207.201 524.118V524.119C205.986 525.262 204.594 525.891 203.047 525.891C202.677 525.891 202.167 525.79 201.601 525.65C201.003 525.503 200.243 525.286 199.328 525.002L199.318 524.999L199.309 524.995C197.595 524.424 196.127 524.156 194.891 524.156C193.201 524.156 191.913 524.603 190.941 525.421L190.935 525.426L190.929 525.431C189.928 526.247 189.094 527.519 188.479 529.337C187.854 531.181 187.413 533.413 187.168 536.046L187.167 536.047C186.921 538.662 186.797 541.878 186.797 545.703V556.391C186.797 559.125 186.155 561.365 184.701 562.931L184.693 562.939C183.273 564.432 181.458 565.172 179.328 565.172C177.215 565.172 175.426 564.406 174.04 562.874C172.625 561.31 172 559.091 172 556.391V520.766C172 517.8 172.53 515.395 173.748 513.711C175.009 511.966 176.898 511.141 179.234 511.141C181.579 511.141 183.47 511.895 184.648 513.584C185.323 514.551 185.783 515.759 186.061 517.178C187.146 515.633 188.263 514.365 189.418 513.392L189.425 513.386L189.778 513.108C191.576 511.77 193.855 511.141 196.531 511.141Z" fill="#F7F4EF" stroke="#F7F4EF" stroke-width="2"/>
<path d="M126.204 489C128.352 489 130.221 489.41 131.756 490.293L132.035 490.449C133.41 491.244 134.536 492.267 135.395 493.521H135.396C136.296 494.791 137.04 496.163 137.627 497.635H137.626C138.221 499.013 138.961 500.85 139.841 503.143L158.705 549.311L159.228 550.59C160.374 553.489 161 555.772 161 557.361C161 559.216 160.25 560.89 158.87 562.367L158.586 562.66C157.016 564.216 155.086 565 152.856 565C151.598 565 150.458 564.769 149.472 564.268V564.269C148.521 563.817 147.712 563.189 147.058 562.388L147.05 562.379L147.043 562.369C146.415 561.563 145.769 560.409 145.1 558.95L145.094 558.938L145.089 558.925C144.464 557.459 143.921 556.17 143.46 555.061L143.454 555.048L143.449 555.035L140.247 546.695H112.265L109.061 555.224V555.225C107.714 558.803 106.523 561.35 105.476 562.745L105.468 562.756L105.467 562.755C104.259 564.323 102.345 565 99.9951 565C98.0172 565 96.2523 564.318 94.7324 562.998L94.4316 562.726C92.8519 561.233 92 559.468 92 557.459C92 556.369 92.1835 555.259 92.5391 554.132L92.834 553.247C93.169 552.289 93.6234 551.108 94.1924 549.711L112.663 503.249C113.188 501.917 113.812 500.324 114.533 498.472L114.536 498.464L114.828 497.754C115.514 496.132 116.235 494.742 116.996 493.596L117.001 493.588L117.007 493.581C117.95 492.215 119.167 491.119 120.645 490.298C122.207 489.415 124.076 489 126.204 489ZM116.841 533.81H135.559L126.114 508.191L116.841 533.81Z" fill="#F7F4EF" stroke="#F7F4EF" stroke-width="2"/>
<path d="M194.859 351.83L163.56 339.098C163.56 339.098 155.778 345.319 151.359 349.177C142.707 356.732 128.548 362.97 129.609 367.744C130.67 372.519 136.471 384.279 143.402 393.208C154.112 407.006 163.267 425.184 179.475 418.671C196.385 411.876 180.787 389.866 186.371 372.519C189.047 364.206 194.859 351.83 194.859 351.83Z" fill="#F7F4EF" stroke="#F7F4EF"/>
<path d="M399.097 406.47C408.13 416.968 420.316 422.385 432.518 418.671C444.719 414.958 440.475 380.476 442.597 370.397C444.719 360.318 446.841 351.83 446.841 351.83C446.841 351.83 427.834 359.832 416.603 366.683C405.602 373.394 390.079 386.312 390.079 386.312C390.079 386.312 393.472 399.933 399.097 406.47Z" fill="#F7F4EF" stroke="#F7F4EF"/>
<path d="M32.5301 306.208C40.7798 357.769 73.3776 429.281 95.6581 423.446C117.939 417.61 102.554 379.415 118.469 360.318C134.384 341.22 160.908 331.671 173.64 299.842C186.371 268.013 177.353 248.385 183.719 246.793C190.085 245.202 192.366 271.157 190.615 289.232C188.865 307.308 171.518 328.488 171.518 328.488C171.518 328.488 204.745 342.275 225.628 347.055C247.194 351.993 279.207 355.543 279.207 355.543C279.207 355.543 299.926 309.213 296.482 256.164C293.037 203.116 213.908 158.555 197.811 137.335C181.713 116.116 179.774 85.3474 179.774 85.3474C179.774 85.3474 149.768 95.0738 117.408 114.171C85.0483 133.269 66.4813 155.549 62.2374 158.202C57.9935 160.854 33.5911 171.464 20.8594 189.501C10.8054 203.744 9.18867 224.513 9.18867 224.513C9.18867 224.513 5.17812 229.634 3.35331 232.47C-2.47574 241.53 4.20211 258.994 5.47525 260.586C6.7484 262.177 16.6155 254.22 20.8594 245.202C25.1033 236.184 19.2679 226.104 19.2679 226.104C19.2679 226.104 21.28 207.164 27.7557 197.458C33.294 189.157 46.8533 180.482 46.8533 180.482C46.8533 180.482 36.6551 202.847 33.5911 218.677C27.2252 251.568 28.2862 279.683 32.5301 306.208Z" fill="#F7F4EF" stroke="#F7F4EF"/>
<path d="M343.396 423.976C319.524 422.385 302.975 407.83 298.835 387.903C290.347 347.055 326.258 291.707 309.744 241.841C282.689 160.146 193.037 153.25 195.159 82.6951C195.814 60.8968 212.365 50.6073 230.402 37.7813C254.274 20.8057 321.19 -1.20143 358.78 1.17765C400.688 3.83008 421.778 8.47508 455.859 42.5557C475.487 62.1837 477.491 82.4519 499.889 90.83C519.649 98.221 542.638 90.8412 561.956 99.3178C602.664 117.179 627.737 163.941 627.737 200.641C627.737 227.696 608.639 251.037 598.029 273.318C585.478 299.676 595.067 313.497 575.749 335.385C560.91 352.197 542.841 362.471 520.578 359.787C501.161 357.446 501.386 341.807 482.914 335.385C460.103 327.454 438.554 341.203 410.767 355.013C364.085 378.215 361.921 425.211 343.396 423.976Z" fill="#D49A7F" stroke="#D49A7F"/>
<path d="M459.042 166.69C462.755 194.806 479.731 205.052 488.749 208.068C497.767 211.083 508.377 209.659 515.274 202.763C524.292 193.745 519.933 177.335 508.377 173.056C494.054 167.751 488.992 163.56 487.158 149.714C485.323 135.868 498.828 115.281 494.584 112.58C490.341 109.879 455.328 138.574 459.042 166.69Z" fill="#8A553E" stroke="#8A553E"/>
<path d="M515.804 251.037C515.804 257.49 523.249 263.331 529.597 262.178C534.978 261.2 539.146 256.507 539.146 251.037C539.146 245.568 534.978 240.344 529.597 239.367C523.249 238.213 515.804 244.585 515.804 251.037Z" fill="#8A553E" stroke="#8A553E"/>
<path d="M354.999 302.309C339.608 298.336 322.074 302.655 320.009 315.868C317.943 329.081 350.982 340.373 350.982 340.373C350.982 340.373 382.516 348.232 386.413 334.311C390.675 319.081 370.827 306.396 354.999 302.309Z" fill="#F7F4EF"/>
<path d="M342.099 232.63C334.396 235.235 325.43 239.507 328.533 248.292C331.836 257.64 343.614 255.733 351.812 252.961C359.515 250.357 368.482 246.085 365.378 237.3C362.076 227.951 350.297 229.858 342.099 232.63Z" fill="#F7F4EF"/>
<path d="M386.411 218.197C378.852 220.555 365.896 226.993 367.558 235.725C369.294 244.844 376.987 247.894 385.225 246.403C391.937 245.188 399.681 247.904 404.957 243.868C413.351 237.447 422.673 240.51 431.391 234.537C440.5 228.298 450.193 219.286 443.754 208.025C437.902 197.792 424.376 199.464 414.423 201.867C404.402 204.286 402.836 215.775 392.626 217.615C388.059 218.438 390.786 216.833 386.411 218.197Z" fill="#F7F4EF"/>
<path d="M315.977 184.175C309.315 188.988 302.336 195.841 307.21 204.183C312.073 212.508 321.565 209.915 329.561 207.569C337.815 205.148 337.388 195.915 345.145 192.404C352.033 189.287 357.768 192.532 364.877 189.869C372.822 186.892 374.873 181.216 382.315 177.271C392.474 171.885 402.057 175.914 410.767 168.436C420.043 160.473 431.301 151.627 424.382 139.065C416.873 125.434 400.283 131.461 388.512 137.632C378.326 142.972 378.98 154.285 374.62 157.435C369.287 161.288 364.641 157.398 356.905 160.466C347.829 164.066 338.979 179.277 335.872 179.569C331.704 179.959 322.639 179.362 315.977 184.175Z" fill="#F7F4EF"/>
<path d="M279.94 145.261C274.364 150.865 268.721 159.69 275.207 166.262C281.009 172.14 287.297 167.241 293.849 164.514C304.052 160.269 300.564 152.857 305.236 150.427C310.564 147.657 315.926 147.862 321.097 144.829C328.479 140.499 327.381 140.569 334.175 135.38C343.999 127.879 354.804 131.819 362.952 122.404C370.921 113.196 381.582 103.016 372.532 92.0413C363.902 81.5756 351.896 89.937 341.462 94.9543C330.164 100.387 328.66 113.97 324.3 117.12C320.044 120.195 316.069 117.206 308.44 122.718C298.391 129.978 304.484 133.824 295.801 139.663C291.356 142.652 283.731 141.452 279.94 145.261Z" fill="#F7F4EF"/>
<path d="M239.674 123.037C237.854 128.735 235.969 136.693 242.408 140.597C248.267 144.149 252.502 139.528 257.179 135.786C262.51 131.52 261.826 125.746 265.621 119.92C274.455 106.357 288.996 97.1716 294.608 91.1637C300.22 85.1558 306.808 66.7225 294.103 58.3205C281.398 49.9184 272.886 67.7499 264.675 79.5805C257.583 89.8001 252.151 108.163 250.898 111.022C249.646 113.88 242.03 115.662 239.674 123.037Z" fill="#F7F4EF"/>
<path d="M354.999 302.309C339.608 298.336 322.074 302.655 320.009 315.868C317.943 329.081 350.982 340.373 350.982 340.373C350.982 340.373 382.516 348.232 386.413 334.311C390.675 319.081 370.827 306.396 354.999 302.309Z" stroke="#F7F4EF"/>
<path d="M342.099 232.63C334.396 235.235 325.43 239.507 328.533 248.292C331.836 257.64 343.614 255.733 351.812 252.961C359.515 250.357 368.482 246.085 365.378 237.3C362.076 227.951 350.297 229.858 342.099 232.63Z" stroke="#F7F4EF"/>
<path d="M386.411 218.197C378.852 220.555 365.896 226.993 367.558 235.725C369.294 244.844 376.987 247.894 385.225 246.403C391.937 245.188 399.681 247.904 404.957 243.868C413.351 237.447 422.673 240.51 431.391 234.537C440.5 228.298 450.193 219.286 443.754 208.025C437.902 197.792 424.376 199.464 414.423 201.867C404.402 204.286 402.836 215.775 392.626 217.615C388.059 218.438 390.786 216.833 386.411 218.197Z" stroke="#F7F4EF"/>
<path d="M315.977 184.175C309.315 188.988 302.336 195.841 307.21 204.183C312.073 212.508 321.565 209.915 329.561 207.569C337.815 205.148 337.388 195.915 345.145 192.404C352.033 189.287 357.768 192.532 364.877 189.869C372.822 186.892 374.873 181.216 382.315 177.271C392.474 171.885 402.057 175.914 410.767 168.436C420.043 160.473 431.301 151.627 424.382 139.065C416.873 125.434 400.283 131.461 388.512 137.632C378.326 142.972 378.98 154.285 374.62 157.435C369.287 161.288 364.641 157.398 356.905 160.466C347.829 164.066 338.979 179.277 335.872 179.569C331.704 179.959 322.639 179.362 315.977 184.175Z" stroke="#F7F4EF"/>
<path d="M279.94 145.261C274.364 150.865 268.721 159.69 275.207 166.262C281.009 172.14 287.297 167.241 293.849 164.514C304.052 160.269 300.564 152.857 305.236 150.427C310.564 147.657 315.926 147.862 321.097 144.829C328.479 140.499 327.381 140.569 334.175 135.38C343.999 127.879 354.804 131.819 362.952 122.404C370.921 113.196 381.582 103.016 372.532 92.0413C363.902 81.5756 351.896 89.937 341.462 94.9543C330.164 100.387 328.66 113.97 324.3 117.12C320.044 120.195 316.069 117.206 308.44 122.718C298.391 129.978 304.484 133.824 295.801 139.663C291.356 142.652 283.731 141.452 279.94 145.261Z" stroke="#F7F4EF"/>
<path d="M239.674 123.037C237.854 128.735 235.969 136.693 242.408 140.597C248.267 144.149 252.502 139.528 257.179 135.786C262.51 131.52 261.826 125.746 265.621 119.92C274.455 106.357 288.996 97.1716 294.608 91.1637C300.22 85.1558 306.808 66.7225 294.103 58.3205C281.398 49.9184 272.886 67.7499 264.675 79.5805C257.583 89.8001 252.151 108.163 250.898 111.022C249.646 113.88 242.03 115.662 239.674 123.037Z" stroke="#F7F4EF"/>
</svg>
