<svg width="1226" height="209" viewBox="0 0 1226 209" fill="none" xmlns="http://www.w3.org/2000/svg">
<path d="M1156.78 61.7983C1172.35 61.7984 1184.7 63.6558 1193.75 67.4341H1193.75C1202.83 71.1383 1209.28 77.0775 1213.01 85.2554L1213.36 86.0229C1216.92 94.0348 1218.67 104.452 1218.67 117.219C1218.67 125.495 1218.62 132.525 1218.54 138.305C1218.54 144.08 1218.49 150.499 1218.41 157.563C1218.41 164.086 1219.47 170.923 1221.6 178.078H1221.6C1222.72 181.658 1223.56 184.617 1224.13 186.949C1224.69 189.258 1225 191.029 1225 192.194C1225 196.175 1223.09 199.748 1219.49 202.9L1219.49 202.902C1215.95 205.985 1211.88 207.542 1207.32 207.542C1203.37 207.542 1199.56 205.701 1195.91 202.226L1195.9 202.217C1192.46 198.863 1188.86 194.147 1185.08 188.101C1176.81 194.442 1168.75 199.267 1160.92 202.553L1160.91 202.555C1152.84 205.887 1143.79 207.542 1133.77 207.542C1124.59 207.542 1116.46 205.749 1109.4 202.132L1109.39 202.129L1109.39 202.125C1102.65 198.544 1097.38 193.749 1093.59 187.739L1093.23 187.154C1089.43 180.879 1087.53 174.064 1087.53 166.729C1087.53 156.845 1090.67 148.373 1096.96 141.371L1097.56 140.721C1103.78 134.091 1112.18 129.651 1122.69 127.362L1123.69 127.136C1126.39 126.54 1131.63 125.449 1139.39 123.867C1148.25 122.059 1155.83 120.424 1162.1 118.962C1168.25 117.468 1174.87 115.691 1181.98 113.634C1181.5 105.101 1179.75 98.9248 1176.84 94.9556L1176.55 94.5669L1176.53 94.5493C1173.56 90.5635 1167.16 88.3589 1156.78 88.3589C1147.89 88.3589 1141.32 89.6026 1136.97 91.98L1136.97 91.981C1132.66 94.3878 1128.89 98.0107 1125.69 102.891L1125.7 102.892C1122.51 107.88 1120.2 111.25 1118.77 112.947L1118.77 112.948C1117.94 113.938 1116.69 114.599 1115.16 115.017C1113.62 115.437 1111.72 115.634 1109.47 115.634C1105.28 115.634 1101.6 114.304 1098.48 111.646L1098.47 111.636L1098.46 111.625C1095.4 108.844 1093.86 105.297 1093.86 101.061C1093.86 94.6028 1096.15 88.3646 1100.66 82.3638L1101.09 81.8003C1105.63 76.0084 1112.51 71.2759 1121.63 67.5601L1122.52 67.2046C1131.83 63.5875 1143.26 61.7983 1156.78 61.7983ZM1182.02 136.99C1176.86 138.769 1169.72 140.649 1160.61 142.628L1160.61 142.629C1150.78 144.698 1144 146.244 1140.24 147.269L1140.23 147.272L1140.22 147.275C1136.6 148.18 1133.11 150.037 1129.77 152.883L1129.76 152.888L1129.75 152.893C1126.58 155.516 1124.95 159.219 1124.95 164.143C1124.95 169.194 1126.85 173.499 1130.7 177.108L1131.06 177.431C1134.85 180.723 1139.77 182.404 1145.92 182.404C1152.75 182.404 1159.01 180.93 1164.72 177.993L1165.26 177.707C1170.79 174.72 1174.81 170.974 1177.37 166.491L1177.38 166.475C1180.42 161.376 1182.02 152.817 1182.02 140.617V136.99Z" fill="#8A553E" stroke="#8A553E" stroke-width="2"/>
<path d="M1037.6 62.0569C1045.18 62.0569 1052.54 63.9547 1059.65 67.7317L1060.32 68.094C1067.08 71.8781 1070.66 76.9583 1070.66 83.3518C1070.66 87.7809 1069.14 91.5263 1066.11 94.5208L1065.82 94.8088C1062.73 97.7098 1059.31 99.2169 1055.57 99.217C1054.78 99.217 1053.57 98.9934 1052 98.6067C1050.4 98.2122 1048.34 97.6243 1045.83 96.8459L1045.82 96.843L1045.81 96.8391C1040.97 95.2242 1036.73 94.4348 1033.07 94.4348C1028.09 94.4349 1024.11 95.7603 1021.05 98.3362L1021.04 98.3411L1021.04 98.3459C1018.14 100.708 1015.8 104.217 1014.06 108.95L1013.73 109.913C1011.95 115.163 1010.71 121.46 1010.02 128.817V128.818C1009.34 136.101 1009 145.031 1009 155.612V185.084C1009 192.377 1007.28 198.05 1003.69 201.923L1003.68 201.932C1000.12 205.677 995.583 207.543 990.157 207.543C984.97 207.543 980.628 205.741 977.205 202.139L976.876 201.784C973.374 197.913 971.706 192.289 971.706 185.084V86.842L971.709 86.0959C971.797 78.4381 973.244 72.4969 976.193 68.4172C979.28 64.1459 983.909 62.0569 989.898 62.0569C995.977 62.0569 1000.56 63.9919 1003.39 68.0432L1003.64 68.4172C1005.82 71.7205 1007.12 76.1987 1007.63 81.7786C1011.36 75.8165 1015.19 71.1625 1019.11 67.8508L1019.12 67.845L1019.57 67.4856C1024.21 63.8372 1030.26 62.0569 1037.6 62.0569Z" fill="#8A553E" stroke="#8A553E" stroke-width="2"/>
<path d="M910.184 62.0566C915.61 62.0567 920.144 63.9233 923.706 67.668C927.29 71.4364 929.023 76.6234 929.023 83.0938V185.085C929.023 192.295 927.309 197.923 923.714 201.794C920.154 205.628 915.618 207.543 910.184 207.543C904.742 207.543 900.24 205.578 896.766 201.646L896.757 201.637C893.359 197.688 891.733 192.121 891.733 185.085V84.1279C891.733 77.0135 893.356 71.4732 896.773 67.6865L896.783 67.6768L897.112 67.3311C900.544 63.809 904.927 62.0566 910.184 62.0566ZM910.572 11.126C915.373 11.126 919.649 12.6731 923.361 15.751L923.712 16.0518C927.287 19.2002 929.023 23.6732 929.023 29.3184C929.023 34.978 927.215 39.5345 923.521 42.8594L923.51 42.8682C919.874 46.0498 915.544 47.6406 910.572 47.6406C905.436 47.6406 900.98 46.0561 897.254 42.876L897.245 42.8682C893.537 39.6235 891.733 35.0576 891.733 29.3184C891.733 24.0532 893.608 19.6846 897.363 16.2959C901.16 12.8607 905.576 11.126 910.572 11.126Z" fill="#8A553E" stroke="#8A553E" stroke-width="2"/>
<path d="M663.975 62.0569C669.044 62.057 673.308 63.7854 676.693 67.2522L677.018 67.5774C680.311 70.9698 681.908 75.58 681.908 81.2834V81.9543C687.591 75.5759 693.658 70.7773 700.114 67.5891L700.785 67.2649C707.74 63.9607 715.425 62.3157 723.824 62.3157C732.833 62.3157 740.635 64.109 747.189 67.7405L747.801 68.0862C753.713 71.5044 758.648 76.461 762.612 82.9211C768.18 76.3689 774.141 71.4044 780.504 68.0588L781.155 67.7229C788.114 64.1132 795.812 62.3157 804.229 62.3157C814.012 62.3157 822.499 64.2375 829.654 68.1243L830.32 68.4944C836.928 72.2404 841.955 77.4729 845.38 84.177L845.717 84.8528L845.723 84.8635H845.722C848.836 91.4487 850.343 101.673 850.343 115.409V184.309C850.343 191.851 848.635 197.695 845.042 201.656C841.471 205.594 836.752 207.543 830.986 207.543C825.383 207.543 820.717 205.587 817.069 201.665L817.062 201.656L817.053 201.648C813.47 197.606 811.76 191.771 811.76 184.309V124.976C811.76 117.415 811.416 111.395 810.737 106.899L810.735 106.889L810.734 106.88C810.192 102.77 808.712 99.3145 806.311 96.4788L805.818 95.9202C803.226 93.0926 799.23 91.5911 793.629 91.5911C789.186 91.5911 784.936 92.904 780.861 95.5647L780.86 95.5637C776.885 98.2157 773.774 101.778 771.523 106.271C769.037 112.014 767.741 122.331 767.741 137.385V184.309C767.741 191.851 766.033 197.695 762.44 201.656C758.869 205.594 754.151 207.543 748.386 207.543C742.782 207.543 738.153 205.586 734.589 201.656L734.58 201.647C731.08 197.686 729.417 191.846 729.417 184.309V128.078C729.417 119.77 729.152 113.233 728.628 108.45L728.52 107.517C727.935 102.76 726.36 98.9493 723.843 96.0256L723.834 96.0159C721.418 93.1324 717.53 91.5911 711.932 91.5911C700.629 91.5912 693.449 95.4433 689.961 102.898L689.962 102.899C686.43 110.636 684.623 121.844 684.623 136.61V184.309C684.623 191.77 682.912 197.604 679.33 201.646L679.331 201.647C675.847 205.59 671.21 207.543 665.525 207.543C659.922 207.543 655.256 205.587 651.608 201.665L651.6 201.656L651.592 201.648C648.009 197.606 646.299 191.771 646.299 184.309V83.3518C646.299 76.5807 647.836 71.2649 651.07 67.5686L651.08 67.5588L651.393 67.219C654.659 63.7703 658.882 62.0569 663.975 62.0569Z" fill="#8A553E" stroke="#8A553E" stroke-width="2"/>
<path d="M539.06 61.7983C554.632 61.7984 566.977 63.6558 576.027 67.4341H576.026C585.106 71.1383 591.555 77.0775 595.291 85.2554L595.642 86.0229C599.197 94.0348 600.944 104.452 600.944 117.219C600.944 125.495 600.901 132.525 600.814 138.305C600.814 144.08 600.772 150.499 600.686 157.563C600.687 164.086 601.747 170.923 603.876 178.078H603.875C604.996 181.658 605.843 184.617 606.409 186.949C606.97 189.258 607.278 191.029 607.278 192.194C607.278 196.175 605.368 199.748 601.766 202.9L601.765 202.902C598.229 205.985 594.162 207.542 589.603 207.542C585.648 207.542 581.838 205.701 578.185 202.226L578.175 202.217C574.737 198.863 571.134 194.147 567.359 188.101C559.084 194.442 551.031 199.267 543.195 202.553L543.189 202.555C535.123 205.887 526.071 207.542 516.05 207.542C506.869 207.542 498.737 205.749 491.68 202.132L491.673 202.129L491.666 202.125C484.929 198.544 479.655 193.749 475.871 187.739L475.51 187.154C471.71 180.879 469.807 174.064 469.807 166.729C469.807 156.845 472.948 148.373 479.241 141.371L479.837 140.721C486.063 134.091 494.461 129.651 504.967 127.362L505.968 127.136C508.667 126.54 513.904 125.449 521.667 123.867C530.533 122.059 538.104 120.424 544.382 118.962C550.524 117.468 557.149 115.691 564.26 113.634C563.78 105.101 562.023 98.9248 559.118 94.9556L558.824 94.5669L558.811 94.5493C555.841 90.5635 549.437 88.3589 539.06 88.3589C530.164 88.3589 523.6 89.6026 519.251 91.98L519.252 91.981C514.936 94.3878 511.172 98.0107 507.973 102.891L507.974 102.892C504.792 107.88 502.475 111.25 501.047 112.947L501.048 112.948C500.223 113.938 498.973 114.599 497.44 115.017C495.902 115.437 493.995 115.634 491.748 115.634C487.554 115.634 483.875 114.304 480.758 111.646L480.745 111.636L480.733 111.625C477.674 108.844 476.141 105.297 476.141 101.061C476.141 94.6028 478.433 88.3646 482.934 82.3638L483.366 81.8003C487.912 76.0084 494.788 71.2759 503.909 67.5601L504.803 67.2046C514.107 63.5875 525.537 61.7983 539.06 61.7983ZM564.301 136.99C559.14 138.769 551.998 140.649 542.892 142.628L542.885 142.629C533.059 144.698 526.278 146.244 522.518 147.269L522.508 147.272L522.497 147.275C518.876 148.18 515.392 150.037 512.044 152.883L512.038 152.888L512.033 152.893C508.854 155.516 507.226 159.219 507.226 164.143C507.226 169.194 509.125 173.499 512.977 177.108L513.339 177.431C517.124 180.723 522.049 182.404 528.201 182.404C535.03 182.404 541.29 180.93 546.999 177.993L547.539 177.707C553.071 174.72 557.087 170.974 559.649 166.491L559.659 166.475C562.702 161.376 564.301 152.817 564.301 140.617V136.99Z" fill="#8A553E" stroke="#8A553E" stroke-width="2"/>
<path d="M381.828 14.0989C386.588 14.0989 390.876 15.8938 394.66 19.4075L395.131 19.8616C397.423 22.16 398.876 24.9489 399.481 28.2024L399.61 28.8352C400.235 32.0813 400.538 36.5191 400.538 42.1155V65.1594H412.465C417.611 65.1595 421.687 66.4012 424.522 69.0471C427.406 71.5706 428.847 74.8596 428.847 78.8274C428.847 81.3299 428.346 83.5242 427.293 85.3665C426.238 87.2128 424.663 88.6442 422.614 89.6702L422.615 89.6711C418.704 91.6724 413.175 92.6243 406.13 92.6243H400.538V156.517C400.538 162.016 400.71 166.235 401.048 169.195C401.457 171.946 402.418 174.156 403.894 175.875C405.351 177.396 407.782 178.268 411.431 178.268C413.4 178.268 416.12 177.938 419.618 177.256L420.918 176.982C423.873 176.381 426.276 176.07 428.105 176.07C431.259 176.07 434.052 177.373 436.453 179.866H436.452C438.965 182.3 440.223 185.355 440.223 188.962C440.223 192 439.39 194.716 437.71 197.073C436.038 199.419 433.563 201.357 430.353 202.917C423.948 206.03 414.852 207.542 403.157 207.542C392.042 207.542 383.456 205.681 377.533 201.823C371.641 197.984 367.744 192.652 365.869 185.867L365.866 185.856C364.112 179.188 363.248 170.345 363.248 159.361V92.6243H359.595C354.528 92.6243 350.47 91.4602 347.567 88.9905L347.29 88.7473C344.402 86.1385 342.953 82.8064 342.953 78.8274C342.953 74.8363 344.455 71.5365 347.444 69.0139C350.533 66.3943 354.892 65.1594 360.37 65.1594H363.248V44.9592C363.248 39.2619 363.377 34.7921 363.639 31.5637L363.64 31.552L363.642 31.5403C363.998 28.1529 364.894 25.2072 366.36 22.7327C367.834 20.1591 369.949 18.1005 372.675 16.5559C375.419 14.9147 378.478 14.0989 381.828 14.0989Z" fill="#8A553E" stroke="#8A553E" stroke-width="2"/>
<path d="M287.507 62.0569C295.092 62.0569 302.448 63.9547 309.563 67.7317L310.228 68.094C316.993 71.8781 320.565 76.9583 320.565 83.3518C320.565 87.7809 319.051 91.5263 316.024 94.5208L315.726 94.8088C312.644 97.7098 309.219 99.2169 305.475 99.217C304.693 99.217 303.475 98.9934 301.907 98.6067C300.307 98.2122 298.25 97.6243 295.742 96.8459L295.732 96.843L295.722 96.8391C290.878 95.2242 286.635 94.4348 282.982 94.4348C277.996 94.4349 274.018 95.7603 270.959 98.3362L270.953 98.3411L270.946 98.3459C268.051 100.708 265.713 104.217 263.974 108.95L263.635 109.913C261.856 115.163 260.619 121.46 259.934 128.817V128.818C259.249 136.101 258.905 145.031 258.905 155.612V185.084C258.905 192.377 257.192 198.05 253.596 201.923L253.588 201.932C250.026 205.677 245.492 207.543 240.066 207.543C234.88 207.543 230.538 205.741 227.114 202.139L226.786 201.784C223.284 197.913 221.615 192.289 221.615 185.084V86.842L221.619 86.0959C221.706 78.4381 223.153 72.4969 226.102 68.4172C229.19 64.1459 233.818 62.0569 239.807 62.0569C245.887 62.0569 250.469 63.9919 253.296 68.0432L253.55 68.4172C255.725 71.7205 257.031 76.1987 257.539 81.7786C261.271 75.8165 265.095 71.1625 269.023 67.8508L269.031 67.845L269.476 67.4856C274.124 63.8372 280.165 62.0569 287.507 62.0569Z" fill="#8A553E" stroke="#8A553E" stroke-width="2"/>
<path d="M93.5674 1C99.3061 1 104.157 2.09988 108.062 4.36523H108.062C111.977 6.49434 115.124 9.28091 117.479 12.7285L117.924 13.3672C120.121 16.5661 121.954 20.0037 123.423 23.6787L124.056 25.1602C125.576 28.7537 127.406 33.3379 129.544 38.9092L181.573 166.24L182.314 168.028C185.905 176.822 187.765 183.431 187.765 187.762C187.765 192.504 185.8 196.84 182 200.749L181.627 201.126C177.633 205.084 172.759 207.069 167.065 207.069C163.774 207.069 160.892 206.463 158.456 205.208V205.207C156.075 204.07 154.063 202.504 152.434 200.51L152.42 200.492C150.81 198.428 149.096 195.385 147.272 191.409L147.268 191.397L147.262 191.385C145.54 187.345 144.045 183.797 142.775 180.742L142.77 180.729L142.765 180.717L133.501 156.59H53.9102L44.6445 181.248L44.6436 181.249C40.9306 191.119 37.7193 197.928 34.998 201.554L34.9902 201.563C32.1079 205.306 27.4515 207.069 21.292 207.069C16.1161 207.069 11.5193 205.241 7.53809 201.632L7.15527 201.276C3.0933 197.439 1.00004 193.014 1 188.031C1 185.226 1.47249 182.342 2.40527 179.385L2.77637 178.241C3.70762 175.453 5.08805 171.815 6.91211 167.336L57.8584 39.1865C59.3067 35.5093 61.0268 31.114 63.0186 26.001L63.0225 25.9932L63.417 25.0195C65.3979 20.2028 67.47 16.1548 69.6387 12.8887L69.6436 12.8809L69.6484 12.874C72.0928 9.33424 75.2437 6.49319 79.0879 4.35645C83.0756 2.10049 87.9178 1 93.5674 1ZM65.2402 124.572H121.886L93.3037 47.0469L65.2402 124.572Z" fill="#8A553E" stroke="#8A553E" stroke-width="2"/>
</svg>
