<svg width="1660" height="247" viewBox="0 0 1660 247" fill="none" xmlns="http://www.w3.org/2000/svg">
<path d="M1590.78 80.7983C1606.35 80.7984 1618.7 82.6558 1627.75 86.4341H1627.75C1636.83 90.1383 1643.28 96.0775 1647.01 104.255L1647.36 105.023C1650.92 113.035 1652.67 123.452 1652.67 136.219C1652.67 144.495 1652.62 151.525 1652.54 157.305C1652.54 163.08 1652.49 169.499 1652.41 176.563C1652.41 183.086 1653.47 189.923 1655.6 197.078H1655.6C1656.72 200.658 1657.56 203.617 1658.13 205.949C1658.69 208.258 1659 210.029 1659 211.194C1659 215.175 1657.09 218.748 1653.49 221.9L1653.49 221.902C1649.95 224.985 1645.88 226.542 1641.32 226.542C1637.37 226.542 1633.56 224.701 1629.91 221.226L1629.9 221.217C1626.46 217.863 1622.86 213.147 1619.08 207.101C1610.81 213.442 1602.75 218.267 1594.92 221.553L1594.91 221.555C1586.84 224.887 1577.79 226.542 1567.77 226.542C1558.59 226.542 1550.46 224.749 1543.4 221.132L1543.39 221.129L1543.39 221.125C1536.65 217.544 1531.38 212.749 1527.59 206.739L1527.23 206.154C1523.43 199.879 1521.53 193.064 1521.53 185.729C1521.53 175.845 1524.67 167.373 1530.96 160.371L1531.56 159.721C1537.78 153.091 1546.18 148.651 1556.69 146.362L1557.69 146.136C1560.39 145.54 1565.63 144.449 1573.39 142.867C1582.25 141.059 1589.83 139.424 1596.1 137.962C1602.25 136.468 1608.87 134.691 1615.98 132.634C1615.5 124.101 1613.75 117.925 1610.84 113.956L1610.55 113.567L1610.53 113.549C1607.56 109.564 1601.16 107.359 1590.78 107.359C1581.89 107.359 1575.32 108.603 1570.97 110.98L1570.97 110.981C1566.66 113.388 1562.89 117.011 1559.69 121.891L1559.7 121.892C1556.51 126.88 1554.2 130.25 1552.77 131.947L1552.77 131.948C1551.94 132.938 1550.69 133.599 1549.16 134.017C1547.62 134.437 1545.72 134.634 1543.47 134.634C1539.28 134.634 1535.6 133.304 1532.48 130.646L1532.47 130.636L1532.46 130.625C1529.4 127.844 1527.86 124.297 1527.86 120.061C1527.86 113.603 1530.15 107.365 1534.66 101.364L1535.09 100.8C1539.63 95.0084 1546.51 90.2759 1555.63 86.5601L1556.52 86.2046C1565.83 82.5875 1577.26 80.7983 1590.78 80.7983ZM1616.02 155.99C1610.86 157.769 1603.72 159.649 1594.61 161.628L1594.61 161.629C1584.78 163.698 1578 165.244 1574.24 166.269L1574.23 166.272L1574.22 166.275C1570.6 167.18 1567.11 169.037 1563.77 171.883L1563.76 171.888L1563.75 171.893C1560.58 174.516 1558.95 178.219 1558.95 183.143C1558.95 188.194 1560.85 192.499 1564.7 196.108L1565.06 196.431C1568.85 199.723 1573.77 201.404 1579.92 201.404C1586.75 201.404 1593.01 199.93 1598.72 196.993L1599.26 196.707C1604.79 193.72 1608.81 189.974 1611.37 185.491L1611.38 185.475C1614.42 180.376 1616.02 171.817 1616.02 159.617V155.99Z" fill="#F7F4EF" stroke="#F7F4EF" stroke-width="2"/>
<path d="M1471.6 81.0569C1479.18 81.0569 1486.54 82.9547 1493.65 86.7317L1494.32 87.094C1501.08 90.8781 1504.66 95.9583 1504.66 102.352C1504.66 106.781 1503.14 110.526 1500.11 113.521L1499.82 113.809C1496.73 116.71 1493.31 118.217 1489.57 118.217C1488.78 118.217 1487.57 117.993 1486 117.607C1484.4 117.212 1482.34 116.624 1479.83 115.846L1479.82 115.843L1479.81 115.839C1474.97 114.224 1470.73 113.435 1467.07 113.435C1462.09 113.435 1458.11 114.76 1455.05 117.336L1455.04 117.341L1455.04 117.346C1452.14 119.708 1449.8 123.217 1448.06 127.95L1447.72 128.913C1445.95 134.163 1444.71 140.46 1444.02 147.817V147.818C1443.34 155.101 1443 164.031 1443 174.612V204.084C1443 211.377 1441.28 217.05 1437.69 220.923L1437.68 220.932C1434.12 224.677 1429.58 226.543 1424.16 226.543C1418.97 226.543 1414.63 224.741 1411.2 221.139L1410.88 220.784C1407.37 216.913 1405.71 211.289 1405.71 204.084V105.842L1405.71 105.096C1405.8 97.4381 1407.24 91.4969 1410.19 87.4172C1413.28 83.1459 1417.91 81.0569 1423.9 81.0569C1429.98 81.0569 1434.56 82.9919 1437.39 87.0432L1437.64 87.4172C1439.81 90.7205 1441.12 95.1987 1441.63 100.779C1445.36 94.8165 1449.19 90.1625 1453.11 86.8508L1453.12 86.845L1453.57 86.4856C1458.21 82.8372 1464.25 81.0569 1471.6 81.0569Z" fill="#F7F4EF" stroke="#F7F4EF" stroke-width="2"/>
<path d="M1344.18 81.0566C1349.61 81.0567 1354.14 82.9233 1357.71 86.668C1361.29 90.4364 1363.02 95.6234 1363.02 102.094V204.085C1363.02 211.295 1361.31 216.923 1357.71 220.794C1354.15 224.628 1349.62 226.543 1344.18 226.543C1338.74 226.543 1334.24 224.578 1330.77 220.646L1330.76 220.637C1327.36 216.688 1325.73 211.121 1325.73 204.085V103.128C1325.73 96.0135 1327.36 90.4732 1330.77 86.6865L1330.78 86.6768L1331.11 86.3311C1334.54 82.809 1338.93 81.0566 1344.18 81.0566ZM1344.57 30.126C1349.37 30.126 1353.65 31.6731 1357.36 34.751L1357.71 35.0518C1361.29 38.2002 1363.02 42.6732 1363.02 48.3184C1363.02 53.978 1361.21 58.5345 1357.52 61.8594L1357.51 61.8682C1353.87 65.0498 1349.54 66.6406 1344.57 66.6406C1339.44 66.6406 1334.98 65.0561 1331.25 61.876L1331.24 61.8682C1327.54 58.6235 1325.73 54.0576 1325.73 48.3184C1325.73 43.0532 1327.61 38.6846 1331.36 35.2959C1335.16 31.8607 1339.58 30.126 1344.57 30.126Z" fill="#F7F4EF" stroke="#F7F4EF" stroke-width="2"/>
<path d="M1097.97 81.0569C1103.04 81.057 1107.31 82.7854 1110.69 86.2522L1111.02 86.5774C1114.31 89.9698 1115.91 94.58 1115.91 100.283V100.954C1121.59 94.5759 1127.66 89.7773 1134.11 86.5891L1134.79 86.2649C1141.74 82.9607 1149.43 81.3157 1157.82 81.3157C1166.83 81.3157 1174.63 83.109 1181.19 86.7405L1181.8 87.0862C1187.71 90.5044 1192.65 95.461 1196.61 101.921C1202.18 95.3689 1208.14 90.4044 1214.5 87.0588L1215.16 86.7229C1222.11 83.1132 1229.81 81.3157 1238.23 81.3157C1248.01 81.3157 1256.5 83.2375 1263.65 87.1243L1264.32 87.4944C1270.93 91.2404 1275.95 96.4729 1279.38 103.177L1279.72 103.853L1279.72 103.864H1279.72C1282.84 110.449 1284.34 120.673 1284.34 134.409V203.309C1284.34 210.851 1282.63 216.695 1279.04 220.656C1275.47 224.594 1270.75 226.543 1264.99 226.543C1259.38 226.543 1254.72 224.587 1251.07 220.665L1251.06 220.656L1251.05 220.648C1247.47 216.606 1245.76 210.771 1245.76 203.309V143.976C1245.76 136.415 1245.42 130.395 1244.74 125.899L1244.74 125.889L1244.73 125.88C1244.19 121.77 1242.71 118.314 1240.31 115.479L1239.82 114.92C1237.23 112.093 1233.23 110.591 1227.63 110.591C1223.19 110.591 1218.94 111.904 1214.86 114.565L1214.86 114.564C1210.89 117.216 1207.77 120.778 1205.52 125.271C1203.04 131.014 1201.74 141.331 1201.74 156.385V203.309C1201.74 210.851 1200.03 216.695 1196.44 220.656C1192.87 224.594 1188.15 226.543 1182.39 226.543C1176.78 226.543 1172.15 224.586 1168.59 220.656L1168.58 220.647C1165.08 216.686 1163.42 210.846 1163.42 203.309V147.078C1163.42 138.77 1163.15 132.233 1162.63 127.45L1162.52 126.517C1161.94 121.76 1160.36 117.949 1157.84 115.026L1157.83 115.016C1155.42 112.132 1151.53 110.591 1145.93 110.591C1134.63 110.591 1127.45 114.443 1123.96 121.898L1123.96 121.899C1120.43 129.636 1118.62 140.844 1118.62 155.61V203.309C1118.62 210.77 1116.91 216.604 1113.33 220.646L1113.33 220.647C1109.85 224.59 1105.21 226.543 1099.53 226.543C1093.92 226.543 1089.26 224.587 1085.61 220.665L1085.6 220.656L1085.59 220.648C1082.01 216.606 1080.3 210.771 1080.3 203.309V102.352C1080.3 95.5807 1081.84 90.2649 1085.07 86.5686L1085.08 86.5588L1085.39 86.219C1088.66 82.7703 1092.88 81.0569 1097.97 81.0569Z" fill="#F7F4EF" stroke="#F7F4EF" stroke-width="2"/>
<path d="M973.06 80.7983C988.632 80.7984 1000.98 82.6558 1010.03 86.4341H1010.03C1019.11 90.1383 1025.56 96.0775 1029.29 104.255L1029.64 105.023C1033.2 113.035 1034.94 123.452 1034.94 136.219C1034.94 144.495 1034.9 151.525 1034.81 157.305C1034.81 163.08 1034.77 169.499 1034.69 176.563C1034.69 183.086 1035.75 189.923 1037.88 197.078H1037.88C1039 200.658 1039.84 203.617 1040.41 205.949C1040.97 208.258 1041.28 210.029 1041.28 211.194C1041.28 215.175 1039.37 218.748 1035.77 221.9L1035.76 221.902C1032.23 224.985 1028.16 226.542 1023.6 226.542C1019.65 226.542 1015.84 224.701 1012.18 221.226L1012.17 221.217C1008.74 217.863 1005.13 213.147 1001.36 207.101C993.084 213.442 985.031 218.267 977.195 221.553L977.189 221.555C969.123 224.887 960.071 226.542 950.05 226.542C940.869 226.542 932.737 224.749 925.68 221.132L925.673 221.129L925.666 221.125C918.929 217.544 913.655 212.749 909.871 206.739L909.51 206.154C905.71 199.879 903.807 193.064 903.807 185.729C903.807 175.845 906.948 167.373 913.241 160.371L913.837 159.721C920.063 153.091 928.461 148.651 938.967 146.362L939.968 146.136C942.667 145.54 947.904 144.449 955.667 142.867C964.533 141.059 972.104 139.424 978.382 137.962C984.524 136.468 991.149 134.691 998.26 132.634C997.78 124.101 996.023 117.925 993.118 113.956L992.824 113.567L992.811 113.549C989.841 109.564 983.437 107.359 973.06 107.359C964.164 107.359 957.6 108.603 953.251 110.98L953.252 110.981C948.936 113.388 945.172 117.011 941.973 121.891L941.974 121.892C938.792 126.88 936.475 130.25 935.047 131.947L935.048 131.948C934.223 132.938 932.973 133.599 931.44 134.017C929.902 134.437 927.995 134.634 925.748 134.634C921.554 134.634 917.875 133.304 914.758 130.646L914.745 130.636L914.733 130.625C911.674 127.844 910.141 124.297 910.141 120.061C910.141 113.603 912.433 107.365 916.934 101.364L917.366 100.8C921.912 95.0084 928.788 90.2759 937.909 86.5601L938.803 86.2046C948.107 82.5875 959.537 80.7983 973.06 80.7983ZM998.301 155.99C993.14 157.769 985.998 159.649 976.892 161.628L976.885 161.629C967.059 163.698 960.278 165.244 956.518 166.269L956.508 166.272L956.497 166.275C952.876 167.18 949.392 169.037 946.044 171.883L946.038 171.888L946.033 171.893C942.854 174.516 941.226 178.219 941.226 183.143C941.226 188.194 943.125 192.499 946.977 196.108L947.339 196.431C951.124 199.723 956.049 201.404 962.201 201.404C969.03 201.404 975.29 199.93 980.999 196.993L981.539 196.707C987.071 193.72 991.087 189.974 993.649 185.491L993.659 185.475C996.702 180.376 998.301 171.817 998.301 159.617V155.99Z" fill="#F7F4EF" stroke="#F7F4EF" stroke-width="2"/>
<path d="M815.828 33.0989C820.588 33.0989 824.876 34.8938 828.66 38.4075L829.131 38.8616C831.423 41.16 832.876 43.9489 833.481 47.2024L833.61 47.8352C834.235 51.0813 834.538 55.5191 834.538 61.1155V84.1594H846.465C851.611 84.1595 855.687 85.4012 858.522 88.0471C861.406 90.5706 862.847 93.8596 862.847 97.8274C862.847 100.33 862.346 102.524 861.293 104.366C860.238 106.213 858.663 107.644 856.614 108.67L856.615 108.671C852.704 110.672 847.175 111.624 840.13 111.624H834.538V175.517C834.538 181.016 834.71 185.235 835.048 188.195C835.457 190.946 836.418 193.156 837.894 194.875C839.351 196.396 841.782 197.268 845.431 197.268C847.4 197.268 850.12 196.938 853.618 196.256L854.918 195.982C857.873 195.381 860.276 195.07 862.105 195.07C865.259 195.07 868.052 196.373 870.453 198.866H870.452C872.965 201.3 874.223 204.355 874.223 207.962C874.223 211 873.39 213.716 871.71 216.073C870.038 218.419 867.563 220.357 864.353 221.917C857.948 225.03 848.852 226.542 837.157 226.542C826.042 226.542 817.456 224.681 811.533 220.823C805.641 216.984 801.744 211.652 799.869 204.867L799.866 204.856C798.112 198.188 797.248 189.345 797.248 178.361V111.624H793.595C788.528 111.624 784.47 110.46 781.567 107.99L781.29 107.747C778.402 105.139 776.953 101.806 776.953 97.8274C776.953 93.8363 778.455 90.5365 781.444 88.0139C784.533 85.3943 788.892 84.1594 794.37 84.1594H797.248V63.9592C797.248 58.2619 797.377 53.7921 797.639 50.5637L797.64 50.552L797.642 50.5403C797.998 47.1529 798.894 44.2072 800.36 41.7327C801.834 39.1591 803.949 37.1005 806.675 35.5559C809.419 33.9147 812.478 33.0989 815.828 33.0989Z" fill="#F7F4EF" stroke="#F7F4EF" stroke-width="2"/>
<path d="M721.506 81.0569C729.092 81.0569 736.448 82.9547 743.563 86.7317L744.228 87.094C750.993 90.8781 754.565 95.9583 754.565 102.352C754.565 106.781 753.051 110.526 750.024 113.521L749.726 113.809C746.644 116.71 743.219 118.217 739.475 118.217C738.693 118.217 737.475 117.993 735.907 117.607C734.307 117.212 732.25 116.624 729.742 115.846L729.732 115.843L729.722 115.839C724.877 114.224 720.635 113.435 716.982 113.435C711.996 113.435 708.017 114.76 704.958 117.336L704.953 117.341L704.946 117.346C702.051 119.708 699.713 123.217 697.974 127.95L697.634 128.913C695.856 134.163 694.618 140.46 693.934 147.817V147.818C693.249 155.101 692.905 164.031 692.905 174.612V204.084C692.905 211.377 691.192 217.05 687.596 220.923L687.587 220.932C684.025 224.677 679.492 226.543 674.066 226.543C668.88 226.543 664.538 224.741 661.114 221.139L660.786 220.784C657.283 216.913 655.615 211.289 655.615 204.084V105.842L655.619 105.096C655.706 97.4381 657.153 91.4969 660.102 87.4172C663.189 83.1459 667.818 81.0569 673.807 81.0569C679.886 81.0569 684.469 82.9919 687.295 87.0432L687.549 87.4172C689.725 90.7205 691.031 95.1987 691.539 100.779C695.271 94.8165 699.095 90.1625 703.023 86.8508L703.031 86.845L703.476 86.4856C708.124 82.8372 714.165 81.0569 721.506 81.0569Z" fill="#F7F4EF" stroke="#F7F4EF" stroke-width="2"/>
<path d="M527.567 20C533.306 20 538.157 21.0999 542.062 23.3652H542.062C545.977 25.4943 549.124 28.2809 551.479 31.7285L551.924 32.3672C554.121 35.5661 555.954 39.0037 557.423 42.6787L558.056 44.1602C559.576 47.7537 561.406 52.3379 563.544 57.9092L615.573 185.24L616.314 187.028C619.905 195.822 621.765 202.431 621.765 206.762C621.765 211.504 619.8 215.84 616 219.749L615.627 220.126C611.633 224.084 606.759 226.069 601.065 226.069C597.774 226.069 594.892 225.463 592.456 224.208V224.207C590.075 223.07 588.063 221.504 586.434 219.51L586.42 219.492C584.81 217.428 583.096 214.385 581.272 210.409L581.268 210.397L581.262 210.385C579.54 206.345 578.045 202.797 576.775 199.742L576.77 199.729L576.765 199.717L567.501 175.59H487.91L478.645 200.248L478.644 200.249C474.931 210.119 471.719 216.928 468.998 220.554L468.99 220.563C466.108 224.306 461.452 226.069 455.292 226.069C450.116 226.069 445.519 224.241 441.538 220.632L441.155 220.276C437.093 216.439 435 212.014 435 207.031C435 204.226 435.472 201.342 436.405 198.385L436.776 197.241C437.708 194.453 439.088 190.815 440.912 186.336L491.858 58.1865C493.307 54.5093 495.027 50.114 497.019 45.001L497.022 44.9932L497.417 44.0195C499.398 39.2028 501.47 35.1548 503.639 31.8887L503.644 31.8809L503.648 31.874C506.093 28.3342 509.244 25.4932 513.088 23.3564C517.076 21.1005 521.918 20 527.567 20ZM499.24 143.572H555.886L527.304 66.0469L499.24 143.572Z" fill="#F7F4EF" stroke="#F7F4EF" stroke-width="2"/>
<path d="M113.281 204.198L95.1534 196.823C95.1534 196.823 90.6463 200.426 88.0866 202.661C83.0753 207.037 74.8747 210.65 75.4892 213.415C76.1037 216.18 79.4634 222.992 83.4778 228.163C89.6813 236.155 94.9837 246.684 104.371 242.912C114.165 238.976 105.131 226.228 108.365 216.18C109.915 211.366 113.281 204.198 113.281 204.198Z" fill="#F7F4EF" stroke="#F7F4EF"/>
<path d="M231.574 235.845C236.806 241.925 243.864 245.062 250.931 242.911C257.998 240.761 255.54 220.789 256.769 214.951C257.998 209.114 259.227 204.198 259.227 204.198C259.227 204.198 248.218 208.832 241.713 212.801C235.342 216.688 226.351 224.169 226.351 224.169C226.351 224.169 228.316 232.058 231.574 235.845Z" fill="#F7F4EF" stroke="#F7F4EF"/>
<path d="M19.2619 177.774C24.0401 207.637 42.9205 249.056 55.8251 245.677C68.7298 242.297 59.8194 220.175 69.037 209.113C78.2546 198.052 93.6173 192.522 100.991 174.087C108.365 155.651 103.142 144.283 106.829 143.361C110.516 142.439 111.837 157.472 110.823 167.941C109.81 178.411 99.7624 190.678 99.7624 190.678C99.7624 190.678 119.007 198.663 131.102 201.432C143.593 204.292 162.135 206.348 162.135 206.348C162.135 206.348 174.135 179.514 172.14 148.789C170.145 118.064 124.315 92.2543 114.991 79.9641C105.667 67.674 104.544 49.8533 104.544 49.8533C104.544 49.8533 87.165 55.4867 68.4225 66.5478C49.68 77.609 38.9262 90.5136 36.4681 92.0499C34.0101 93.5862 19.8764 99.7312 12.5024 110.178C6.67918 118.427 5.7428 130.457 5.7428 130.457C5.7428 130.457 3.41993 133.423 2.36302 135.065C-1.01312 140.313 2.85463 150.428 3.59203 151.35C4.32942 152.272 10.0443 147.663 12.5024 142.439C14.9604 137.216 11.5806 131.378 11.5806 131.378C11.5806 131.378 12.746 120.408 16.4967 114.787C19.7044 109.979 27.5578 104.955 27.5578 104.955C27.5578 104.955 21.6511 117.908 19.8765 127.077C16.1894 146.127 16.8039 162.411 19.2619 177.774Z" fill="#F7F4EF" stroke="#F7F4EF"/>
<path d="M199.312 245.984C185.486 245.062 175.901 236.632 173.503 225.091C168.587 201.432 189.386 169.375 179.821 140.493C164.151 93.1761 112.226 89.1818 113.455 48.317C113.834 35.6917 123.42 29.7321 133.867 22.3034C147.693 12.4713 186.451 -0.275047 208.222 1.10289C232.495 2.63916 244.711 5.3295 264.45 25.0687C275.818 36.437 276.979 48.1762 289.952 53.0287C301.396 57.3095 314.711 53.0352 325.9 57.9448C349.478 68.2901 364 95.3741 364 116.63C364 132.3 352.939 145.819 346.794 158.724C339.524 173.99 345.078 181.995 333.889 194.673C325.295 204.41 314.829 210.361 301.935 208.806C290.689 207.45 290.819 198.392 280.12 194.673C266.908 190.079 254.427 198.042 238.333 206.041C211.295 219.479 210.042 246.699 199.312 245.984Z" fill="#D49A7F" stroke="#D49A7F"/>
<path d="M266.294 96.966C268.445 113.25 278.277 119.185 283.5 120.932C288.723 122.678 294.868 121.854 298.863 117.859C304.086 112.636 301.561 103.132 294.868 100.653C286.572 97.5805 283.64 95.1531 282.578 87.1339C281.516 79.1146 289.338 67.1903 286.88 65.6261C284.422 64.0619 264.143 80.6816 266.294 96.966Z" fill="#8A553E" stroke="#8A553E"/>
<path d="M299.17 145.819C299.17 149.556 303.482 152.94 307.159 152.272C310.275 151.705 312.689 148.987 312.689 145.819C312.689 142.652 310.275 139.626 307.159 139.06C303.482 138.392 299.17 142.082 299.17 145.819Z" fill="#8A553E" stroke="#8A553E"/>
<path d="M206.033 175.516C197.119 173.214 186.964 175.716 185.767 183.369C184.571 191.022 203.707 197.562 203.707 197.562C203.707 197.562 221.971 202.114 224.228 194.051C226.697 185.23 215.201 177.882 206.033 175.516Z" fill="#F7F4EF"/>
<path d="M198.562 135.158C194.1 136.667 188.907 139.141 190.705 144.229C192.617 149.644 199.439 148.539 204.187 146.934C208.649 145.425 213.842 142.951 212.045 137.863C210.132 132.448 203.31 133.553 198.562 135.158Z" fill="#F7F4EF"/>
<path d="M224.227 126.799C219.849 128.164 212.345 131.893 213.307 136.951C214.313 142.232 218.768 143.999 223.54 143.135C227.428 142.431 231.913 144.005 234.969 141.667C239.83 137.948 245.229 139.722 250.279 136.263C255.554 132.649 261.169 127.43 257.439 120.907C254.05 114.98 246.216 115.949 240.451 117.34C234.647 118.742 233.74 125.396 227.826 126.462C225.182 126.938 226.761 126.009 224.227 126.799Z" fill="#F7F4EF"/>
<path d="M183.432 107.093C179.574 109.881 175.531 113.85 178.354 118.682C181.171 123.504 186.669 122.002 191.3 120.643C196.08 119.241 195.833 113.893 200.326 111.86C204.315 110.054 207.637 111.934 211.755 110.391C216.356 108.667 217.544 105.38 221.855 103.095C227.739 99.975 233.289 102.309 238.334 97.9776C243.706 93.3654 250.227 88.2422 246.219 80.9664C241.87 73.0714 232.261 76.5621 225.444 80.136C219.544 83.2288 219.923 89.7817 217.398 91.6059C214.309 93.8375 211.618 91.5846 207.137 93.3616C201.88 95.4467 196.755 104.257 194.955 104.426C192.541 104.652 187.291 104.306 183.432 107.093Z" fill="#F7F4EF"/>
<path d="M162.56 84.5551C159.33 87.8004 156.062 92.9118 159.819 96.7184C163.179 100.123 166.821 97.2853 170.616 95.7061C176.525 93.2472 174.505 88.9543 177.211 87.5471C180.297 85.9427 183.402 86.0613 186.397 84.3047C190.673 81.7969 190.037 81.8371 193.972 78.8321C199.662 74.4873 205.92 76.7693 210.639 71.3164C215.255 65.9829 221.43 60.0868 216.188 53.7305C211.19 47.6688 204.236 52.5117 198.193 55.4177C191.649 58.5639 190.778 66.4316 188.253 68.2558C185.788 70.0368 183.485 68.3058 179.067 71.4982C173.247 75.7028 176.775 77.9308 171.746 81.3126C169.172 83.0435 164.756 82.3488 162.56 84.5551Z" fill="#F7F4EF"/>
<path d="M139.238 71.6831C138.184 74.9833 137.092 79.5925 140.822 81.8534C144.215 83.9108 146.668 81.2343 149.377 79.0671C152.465 76.5961 152.068 73.2517 154.266 69.8774C159.383 62.0218 167.805 56.7019 171.056 53.2222C174.306 49.7424 178.121 39.0661 170.763 34.1997C163.404 29.3333 158.474 39.6611 153.719 46.5133C149.611 52.4324 146.465 63.0682 145.739 64.7237C145.014 66.3792 140.603 67.4116 139.238 71.6831Z" fill="#F7F4EF"/>
<path d="M206.033 175.516C197.119 173.214 186.964 175.716 185.767 183.369C184.571 191.022 203.707 197.562 203.707 197.562C203.707 197.562 221.971 202.114 224.228 194.051C226.697 185.23 215.201 177.882 206.033 175.516Z" stroke="#F7F4EF"/>
<path d="M198.562 135.158C194.1 136.667 188.907 139.141 190.705 144.229C192.617 149.644 199.439 148.539 204.187 146.934C208.649 145.425 213.842 142.951 212.045 137.863C210.132 132.448 203.31 133.553 198.562 135.158Z" stroke="#F7F4EF"/>
<path d="M224.227 126.799C219.849 128.164 212.345 131.893 213.307 136.951C214.313 142.232 218.768 143.999 223.54 143.135C227.428 142.431 231.913 144.005 234.969 141.667C239.83 137.948 245.229 139.722 250.279 136.263C255.554 132.649 261.169 127.43 257.439 120.907C254.05 114.98 246.216 115.949 240.451 117.34C234.647 118.742 233.74 125.396 227.826 126.462C225.182 126.938 226.761 126.009 224.227 126.799Z" stroke="#F7F4EF"/>
<path d="M183.432 107.093C179.574 109.881 175.531 113.85 178.354 118.682C181.171 123.504 186.669 122.002 191.3 120.643C196.08 119.241 195.833 113.893 200.326 111.86C204.315 110.054 207.637 111.934 211.755 110.391C216.356 108.667 217.544 105.38 221.855 103.095C227.739 99.975 233.289 102.309 238.334 97.9776C243.706 93.3654 250.227 88.2422 246.219 80.9664C241.87 73.0714 232.261 76.5621 225.444 80.136C219.544 83.2288 219.923 89.7817 217.398 91.6059C214.309 93.8375 211.618 91.5846 207.137 93.3616C201.88 95.4467 196.755 104.257 194.955 104.426C192.541 104.652 187.291 104.306 183.432 107.093Z" stroke="#F7F4EF"/>
<path d="M162.56 84.5551C159.33 87.8004 156.062 92.9118 159.819 96.7184C163.179 100.123 166.821 97.2853 170.616 95.7061C176.525 93.2472 174.505 88.9543 177.211 87.5471C180.297 85.9427 183.402 86.0613 186.397 84.3047C190.673 81.7969 190.037 81.8371 193.972 78.8321C199.662 74.4873 205.92 76.7693 210.639 71.3164C215.255 65.9829 221.43 60.0868 216.188 53.7305C211.19 47.6688 204.236 52.5117 198.193 55.4177C191.649 58.5639 190.778 66.4316 188.253 68.2558C185.788 70.0368 183.485 68.3058 179.067 71.4982C173.247 75.7028 176.775 77.9308 171.746 81.3126C169.172 83.0435 164.756 82.3488 162.56 84.5551Z" stroke="#F7F4EF"/>
<path d="M139.238 71.6831C138.184 74.9833 137.092 79.5925 140.822 81.8534C144.215 83.9108 146.668 81.2343 149.377 79.0671C152.465 76.5961 152.068 73.2517 154.266 69.8774C159.383 62.0218 167.805 56.7019 171.056 53.2222C174.306 49.7424 178.121 39.0661 170.763 34.1997C163.404 29.3333 158.474 39.6611 153.719 46.5133C149.611 52.4324 146.465 63.0682 145.739 64.7237C145.014 66.3792 140.603 67.4116 139.238 71.6831Z" stroke="#F7F4EF"/>
</svg>
